<svg width="28" height="28" viewBox="0 0 28 28" fill="none" xmlns="http://www.w3.org/2000/svg">
<path d="M12.7878 4.33107L13.0625 4.05638V12.1058C13.0625 12.3544 13.1613 12.5929 13.3371 12.7687C13.5129 12.9445 13.7514 13.0433 14 13.0433C14.2487 13.0433 14.4871 12.9445 14.6629 12.7687C14.8387 12.5929 14.9375 12.3544 14.9375 12.1058V4.05638L15.2122 4.33107C15.2991 4.41843 15.4023 4.48776 15.5161 4.53507C15.6298 4.58237 15.7518 4.60673 15.875 4.60673C15.9982 4.60673 16.1202 4.58237 16.2339 4.53507C16.3477 4.48776 16.451 4.41843 16.5378 4.33107C16.7136 4.15526 16.8123 3.91685 16.8123 3.66826C16.8123 3.41967 16.7136 3.18125 16.5378 3.00544L14.6628 1.13044C14.487 0.95469 14.2486 0.855957 14 0.855957C13.7514 0.855957 13.513 0.95469 13.3372 1.13044L11.4622 3.00544C11.3727 3.09193 11.3012 3.19537 11.2521 3.30975C11.203 3.42413 11.1771 3.54715 11.176 3.67163C11.1749 3.79611 11.1987 3.91956 11.2458 4.03478C11.2929 4.14999 11.3626 4.25467 11.4506 4.34269C11.5386 4.43071 11.6433 4.50033 11.7585 4.54746C11.8737 4.5946 11.9972 4.61832 12.1216 4.61724C12.2461 4.61616 12.3691 4.5903 12.4835 4.54116C12.5979 4.49203 12.7013 4.42061 12.7878 4.33107ZM26.8503 3.00544L24.9753 1.13044C24.7995 0.95469 24.5611 0.855957 24.3125 0.855957C24.0639 0.855957 23.8255 0.95469 23.6497 1.13044L21.7747 3.00544C21.6852 3.09193 21.6137 3.19537 21.5646 3.30975C21.5155 3.42413 21.4896 3.54715 21.4885 3.67163C21.4874 3.79611 21.5112 3.91956 21.5583 4.03478C21.6054 4.14999 21.6751 4.25467 21.7631 4.34269C21.8511 4.43071 21.9558 4.50033 22.071 4.54746C22.1862 4.5946 22.3097 4.61832 22.4341 4.61724C22.5586 4.61616 22.6816 4.5903 22.796 4.54116C22.9104 4.49203 23.0138 4.42061 23.1003 4.33107L23.375 4.05638V9.29326C23.375 9.5419 23.4738 9.78035 23.6496 9.95617C23.8254 10.132 24.0639 10.2308 24.3125 10.2308C24.5612 10.2308 24.7996 10.132 24.9754 9.95617C25.1512 9.78035 25.25 9.5419 25.25 9.29326V4.05638L25.5247 4.33107C25.6116 4.41843 25.7148 4.48776 25.8286 4.53507C25.9423 4.58237 26.0643 4.60673 26.1875 4.60673C26.3107 4.60673 26.4327 4.58237 26.5464 4.53507C26.6602 4.48776 26.7635 4.41843 26.8503 4.33107C27.0261 4.15526 27.1248 3.91685 27.1248 3.66826C27.1248 3.41967 27.0261 3.18125 26.8503 3.00544ZM4.62502 9.29326V4.05638L4.8997 4.33107C4.98657 4.41843 5.08984 4.48776 5.20359 4.53507C5.31734 4.58237 5.43932 4.60673 5.56251 4.60673C5.68571 4.60673 5.80769 4.58237 5.92144 4.53507C6.03519 4.48776 6.13846 4.41843 6.22533 4.33107C6.40108 4.15526 6.49981 3.91685 6.49981 3.66826C6.49981 3.41967 6.40108 3.18125 6.22533 3.00544L4.35033 1.13044C4.17452 0.95469 3.93611 0.855957 3.68752 0.855957C3.43892 0.855957 3.20051 0.95469 3.0247 1.13044L1.1497 3.00544C1.06016 3.09193 0.988741 3.19537 0.939608 3.30975C0.890474 3.42413 0.864612 3.54715 0.86353 3.67163C0.862449 3.79611 0.886169 3.91956 0.933307 4.03478C0.980446 4.14999 1.05006 4.25467 1.13808 4.34269C1.22611 4.43071 1.33078 4.50033 1.446 4.54746C1.56121 4.5946 1.68466 4.61832 1.80914 4.61724C1.93362 4.61616 2.05664 4.5903 2.17102 4.54116C2.2854 4.49203 2.38885 4.42061 2.47533 4.33107L2.75002 4.05638V9.29326C2.75002 9.5419 2.84879 9.78035 3.0246 9.95617C3.20042 10.132 3.43887 10.2308 3.68752 10.2308C3.93616 10.2308 4.17461 10.132 4.35043 9.95617C4.52624 9.78035 4.62502 9.5419 4.62502 9.29326Z" fill="black"/>
<path d="M23.7125 11.2313L17.15 8.70006C16.918 8.61055 16.66 8.61686 16.4327 8.7176C16.2053 8.81835 16.0273 9.00527 15.9378 9.23725C15.8483 9.46923 15.8546 9.72727 15.9554 9.9546C16.0561 10.1819 16.243 10.3599 16.475 10.4494L20.8119 12.1219L14 14.8463L7.18813 12.1219L11.525 10.4494C11.757 10.3599 11.9439 10.1819 12.0446 9.9546C12.1454 9.72727 12.1517 9.46923 12.0622 9.23725C11.9727 9.00527 11.7947 8.81835 11.5673 8.7176C11.34 8.61686 11.082 8.61055 10.85 8.70006L4.2875 11.2313C4.11183 11.2992 3.96066 11.4184 3.85365 11.5734C3.74664 11.7284 3.68875 11.912 3.6875 12.1004V22.4185C3.6875 22.8019 3.92094 23.146 4.27719 23.2894L13.6522 27.0394C13.8756 27.1282 14.1244 27.1282 14.3478 27.0394L23.7228 23.2894C24.0791 23.146 24.3125 22.8019 24.3125 22.4185V12.1004C24.3112 11.912 24.2534 11.7284 24.1463 11.5734C24.0393 11.4184 23.8882 11.2992 23.7125 11.2313ZM5.5625 13.4907L13.0625 16.4907V24.7838L5.5625 21.7838V13.4907ZM14.9375 24.7838V16.4907L22.4375 13.4907V21.7838L14.9375 24.7838Z" fill="black"/>
</svg>
