<svg width="30" height="31" viewBox="0 0 30 31" fill="none" xmlns="http://www.w3.org/2000/svg">
<g clip-path="url(#clip0_1044_2824)">
<path d="M15.5 2.68943C15.6326 2.68943 15.7597 2.63676 15.8535 2.54299C15.9473 2.44923 16 2.32206 16 2.18945V1.18943C16 1.05683 15.9473 0.929659 15.8535 0.835894C15.7597 0.742129 15.6326 0.689453 15.5 0.689453C15.3674 0.689453 15.2402 0.742129 15.1464 0.835894C15.0527 0.929659 15 1.05683 15 1.18943V2.18945C15 2.32206 15.0527 2.44923 15.1464 2.54299C15.2402 2.63676 15.3674 2.68943 15.5 2.68943ZM18.5 3.18947C18.5656 3.18947 18.6306 3.17654 18.6913 3.15141C18.752 3.12629 18.8071 3.08946 18.8535 3.04303C18.8999 2.9966 18.9368 2.94149 18.9619 2.88083C18.987 2.82017 18.9999 2.75515 18.9999 2.68949V1.68947C18.9999 1.55687 18.9473 1.4297 18.8535 1.33593C18.7597 1.24217 18.6326 1.18949 18.5 1.18949C18.3674 1.18949 18.2402 1.24217 18.1464 1.33593C18.0527 1.4297 18 1.55687 18 1.68947V2.68949C18 2.82209 18.0527 2.94925 18.1464 3.04301C18.2402 3.13678 18.3674 3.18946 18.5 3.18947ZM12.5 3.18947C12.6326 3.18947 12.7597 3.1368 12.8535 3.04303C12.9473 2.94927 12.9999 2.8221 12.9999 2.68949V1.68947C12.9999 1.55687 12.9473 1.4297 12.8535 1.33593C12.7597 1.24217 12.6326 1.18949 12.5 1.18949C12.3674 1.18949 12.2402 1.24217 12.1464 1.33593C12.0527 1.4297 12 1.55687 12 1.68947V2.68949C12 2.82209 12.0527 2.94925 12.1464 3.04301C12.2402 3.13678 12.3674 3.18946 12.5 3.18947ZM4.49999 25.0974V28.1894C4.50163 29.5694 5.61995 30.6878 7.00001 30.6895H24C25.38 30.6878 26.4983 29.5695 26.5 28.1894V11.1895C26.4984 9.80945 25.38 8.69113 24 8.68943H21.819C21.1263 5.75957 18.5104 3.69016 15.4997 3.69016C12.4891 3.69016 9.87327 5.75957 9.18046 8.68943H6.99995C5.61995 8.69113 4.50163 9.80945 4.49999 11.1895V18.2815C4.20853 18.3845 3.95602 18.5751 3.77702 18.8271C3.59801 19.0792 3.50125 19.3803 3.49997 19.6895V23.6895C3.50126 23.9986 3.59803 24.2998 3.77704 24.5518C3.95604 24.8038 4.20854 24.9944 4.49999 25.0974ZM25.5 11.1895C25.5004 11.3866 25.4619 11.5818 25.3867 11.764C25.3114 11.9461 25.201 12.1117 25.0616 12.251C24.9222 12.3904 24.7567 12.5009 24.5745 12.5761C24.3923 12.6514 24.1971 12.6899 24 12.6895H21.5035C21.8317 11.8968 22.0004 11.0473 22 10.1894C22 10.0234 21.992 9.85645 21.979 9.68945H24C24.8284 9.68945 25.5 10.3611 25.5 11.1895ZM10.078 9.27197C10.4297 7.12797 12.0107 5.39195 14.1125 4.8417C16.2143 4.29145 18.4431 5.03002 19.8003 6.7266C21.1575 8.42318 21.3888 10.7597 20.3905 12.6895H18.4785L18.2391 11.2394C18.2367 11.2249 18.2374 11.2101 18.2411 11.1959C18.2449 11.1817 18.2515 11.1684 18.2606 11.1569L19.4361 9.96643C19.5778 9.82232 19.6769 9.64175 19.7223 9.44475C19.7676 9.24776 19.7575 9.04205 19.6931 8.85045C19.6335 8.66454 19.5235 8.49883 19.3752 8.37179C19.227 8.24475 19.0464 8.16138 18.8536 8.13098L17.2246 7.88746C17.2149 7.88525 17.206 7.88072 17.1985 7.87428C17.191 7.86784 17.1852 7.85968 17.1816 7.85049L16.4425 6.29746C16.36 6.11688 16.2273 5.96381 16.0602 5.85649C15.8932 5.74917 15.6988 5.69212 15.5003 5.69212C15.3017 5.69212 15.1073 5.74917 14.9403 5.85649C14.7732 5.96381 14.6406 6.11688 14.558 6.29746L13.818 7.85447C13.8116 7.86906 13.8003 7.8809 13.786 7.88799L12.1435 8.1335C11.9512 8.16421 11.7712 8.24768 11.6236 8.37462C11.4759 8.50156 11.3663 8.66699 11.3071 8.8525C11.2426 9.04418 11.2325 9.24997 11.2779 9.44704C11.3232 9.64412 11.4223 9.82478 11.5641 9.969L12.735 11.154C12.756 11.1779 12.7657 11.2096 12.7615 11.241L12.5215 12.691H10.6096C10.0649 11.6402 9.87826 10.4402 10.0781 9.27355L10.078 9.27197ZM13.45 10.4529L12.275 9.26342C12.2627 9.25026 12.2544 9.2339 12.2509 9.21621C12.2474 9.19852 12.2491 9.18022 12.2555 9.1634C12.2615 9.14488 12.2735 9.12191 12.293 9.11893L13.943 8.87242C14.1106 8.84314 14.2687 8.77397 14.4039 8.67076C14.5391 8.56754 14.6476 8.43331 14.72 8.27939L15.46 6.72438L15.5 6.68939L16.278 8.27641C16.3513 8.43224 16.4614 8.56795 16.5988 8.67185C16.7361 8.77575 16.8966 8.84474 17.0665 8.87289L18.7031 9.1174C18.7256 9.12092 18.7376 9.14389 18.7435 9.1624C18.757 9.19668 18.7494 9.23564 18.724 9.26242L17.5445 10.4574C17.4261 10.5813 17.338 10.7309 17.2873 10.8945C17.2365 11.0582 17.2245 11.2313 17.252 11.4004L17.4656 12.6895H13.535L13.7485 11.4C13.7756 11.2298 13.7627 11.0556 13.7109 10.8913C13.6591 10.7269 13.5698 10.5769 13.45 10.4529ZM7.00001 9.68945H9.02102C9.00802 9.85645 9.00005 10.0234 9.00005 10.1894C8.99954 11.0474 9.16843 11.8969 9.49704 12.6895H7.00007C6.45733 12.6913 5.93026 12.8715 5.50007 13.2024V11.1895C5.50001 10.3611 6.17155 9.68945 7.00001 9.68945ZM7.00001 13.6895H24C24.5425 13.6866 25.0693 13.5064 25.5 13.1765V28.1895C25.5 29.0179 24.8284 29.6895 24 29.6895H7.00001C6.17161 29.6895 5.50001 29.0179 5.50001 28.1895V25.1895H10C11.933 25.1895 13.5 23.6225 13.5 21.6895C13.5 19.7566 11.933 18.1895 10 18.1895H5.50001V15.1895C5.50001 14.361 6.17155 13.6895 7.00001 13.6895ZM4.49999 19.6895C4.49999 19.5569 4.55267 19.4297 4.64643 19.3359C4.74019 19.2422 4.86737 19.1895 4.99997 19.1895H9.99995C11.3807 19.1895 12.5 20.3088 12.5 21.6895C12.5 23.0702 11.3807 24.1895 9.99995 24.1895H4.99997C4.86737 24.1895 4.74019 24.1369 4.64643 24.0431C4.55267 23.9493 4.49999 23.8222 4.49999 23.6896V19.6895Z" fill="black"/>
<path d="M10 23.1894C10.8285 23.1894 11.5 22.5178 11.5 21.6894C11.5 20.861 10.8284 20.1894 10 20.1894C9.1716 20.1894 8.5 20.861 8.5 21.6894C8.5 22.5178 9.17154 23.1894 10 23.1894ZM10 21.1894C10.0657 21.1894 10.1307 21.2024 10.1913 21.2275C10.252 21.2526 10.3071 21.2894 10.3535 21.3359C10.4 21.3823 10.4368 21.4374 10.4619 21.4981C10.487 21.5587 10.5 21.6238 10.5 21.6894C10.5 21.7551 10.487 21.8201 10.4619 21.8807C10.4368 21.9414 10.4 21.9965 10.3535 22.043C10.3071 22.0894 10.252 22.1262 10.1913 22.1513C10.1307 22.1765 10.0657 22.1894 10 22.1894C9.8674 22.1894 9.74022 22.1367 9.64646 22.043C9.5527 21.9492 9.50002 21.822 9.50002 21.6894C9.50002 21.5568 9.5527 21.4296 9.64646 21.3359C9.74022 21.2421 9.8674 21.1894 10 21.1894ZM22.5 15.6894H23C23.2761 15.6894 23.4999 15.4656 23.4999 15.1894C23.4999 14.9133 23.2761 14.6895 23 14.6895H22.5C22.3674 14.6895 22.2402 14.7421 22.1464 14.8359C22.0527 14.9297 22 15.0568 22 15.1894C22 15.322 22.0527 15.4492 22.1464 15.543C22.2402 15.6367 22.3674 15.6894 22.5 15.6894ZM20 15.6894H20.4999C20.6325 15.6894 20.7597 15.6367 20.8535 15.543C20.9472 15.4492 20.9999 15.322 20.9999 15.1894C20.9999 15.0568 20.9472 14.9297 20.8535 14.8359C20.7597 14.7421 20.6325 14.6895 20.4999 14.6895H20C19.8674 14.6895 19.7402 14.7421 19.6464 14.8359C19.5527 14.9297 19.5 15.0568 19.5 15.1894C19.5 15.322 19.5527 15.4492 19.6464 15.543C19.7402 15.6367 19.8674 15.6894 20 15.6894ZM17.5 15.6894H18C18.2761 15.6894 18.5 15.4656 18.5 15.1894C18.5 14.9133 18.2761 14.6895 18 14.6895H17.5C17.3674 14.6895 17.2402 14.7421 17.1465 14.8359C17.0527 14.9297 17 15.0568 17 15.1894C17 15.2551 17.0129 15.3201 17.0381 15.3808C17.0632 15.4414 17.1 15.4966 17.1464 15.543C17.1929 15.5894 17.248 15.6262 17.3087 15.6514C17.3693 15.6765 17.4343 15.6894 17.5 15.6894ZM15 15.6894H15.5C15.7761 15.6894 15.9999 15.4656 15.9999 15.1894C15.9999 14.9133 15.7761 14.6895 15.5 14.6895H15C14.8674 14.6895 14.7402 14.7421 14.6464 14.8359C14.5527 14.9297 14.5 15.0568 14.5 15.1894C14.5 15.322 14.5527 15.4492 14.6464 15.543C14.7402 15.6367 14.8674 15.6894 15 15.6894ZM12.5 15.6894H12.9999C13.1325 15.6894 13.2597 15.6367 13.3535 15.543C13.4472 15.4492 13.4999 15.322 13.4999 15.1894C13.4999 15.0568 13.4472 14.9297 13.3535 14.8359C13.2597 14.7421 13.1325 14.6895 12.9999 14.6895H12.5C12.3674 14.6895 12.2402 14.7421 12.1464 14.8359C12.0527 14.9297 12 15.0568 12 15.1894C12 15.322 12.0527 15.4492 12.1464 15.543C12.2402 15.6367 12.3674 15.6894 12.5 15.6894ZM10 15.6894H10.5C10.7761 15.6894 11 15.4656 11 15.1894C11 14.9133 10.7761 14.6895 10.5 14.6895H10C9.8674 14.6895 9.74022 14.7421 9.64646 14.8359C9.5527 14.9297 9.50002 15.0568 9.50002 15.1894C9.50001 15.2551 9.51294 15.3201 9.53806 15.3808C9.56319 15.4414 9.60001 15.4966 9.64644 15.543C9.69287 15.5894 9.74799 15.6262 9.80866 15.6514C9.86932 15.6765 9.93434 15.6894 10 15.6894ZM7.49998 15.6894H7.99996C8.13256 15.6894 8.25974 15.6367 8.3535 15.543C8.44726 15.4492 8.49994 15.322 8.49994 15.1894C8.49994 15.0568 8.44726 14.9297 8.3535 14.8359C8.25974 14.7421 8.13256 14.6895 7.99996 14.6895H7.49998C7.36738 14.6895 7.24021 14.7421 7.14644 14.8359C7.05268 14.9297 7 15.0568 7 15.1894C7 15.322 7.05268 15.4492 7.14644 15.543C7.24021 15.6367 7.36738 15.6894 7.49998 15.6894ZM22.5 28.6894H23C23.1326 28.6894 23.2597 28.6368 23.3535 28.543C23.4473 28.4492 23.4999 28.3221 23.4999 28.1895C23.4999 28.0569 23.4473 27.9297 23.3535 27.8359C23.2597 27.7421 23.1326 27.6895 23 27.6895H22.5C22.3674 27.6895 22.2402 27.7421 22.1464 27.8359C22.0527 27.9297 22 28.0569 22 28.1895C22 28.3221 22.0527 28.4492 22.1464 28.543C22.2402 28.6368 22.3674 28.6894 22.5 28.6894ZM20 28.6894H20.4999C20.6325 28.6894 20.7597 28.6368 20.8535 28.543C20.9472 28.4492 20.9999 28.3221 20.9999 28.1895C20.9999 28.0569 20.9472 27.9297 20.8535 27.8359C20.7597 27.7421 20.6325 27.6895 20.4999 27.6895H20C19.8674 27.6895 19.7402 27.7421 19.6464 27.8359C19.5527 27.9297 19.5 28.0569 19.5 28.1895C19.5 28.3221 19.5527 28.4492 19.6464 28.543C19.7402 28.6368 19.8674 28.6894 20 28.6894ZM17.5 28.6894H18C18.1326 28.6894 18.2598 28.6368 18.3535 28.543C18.4473 28.4492 18.5 28.3221 18.5 28.1895C18.5 28.0569 18.4473 27.9297 18.3535 27.8359C18.2598 27.7421 18.1326 27.6895 18 27.6895H17.5C17.3674 27.6895 17.2402 27.7421 17.1465 27.8359C17.0527 27.9297 17 28.0569 17 28.1895C17 28.3221 17.0527 28.4492 17.1465 28.543C17.2402 28.6368 17.3674 28.6894 17.5 28.6894ZM15 28.6894H15.5C15.6326 28.6894 15.7597 28.6368 15.8535 28.543C15.9473 28.4492 15.9999 28.3221 15.9999 28.1895C15.9999 28.0569 15.9473 27.9297 15.8535 27.8359C15.7597 27.7421 15.6326 27.6895 15.5 27.6895H15C14.8674 27.6895 14.7402 27.7421 14.6464 27.8359C14.5527 27.9297 14.5 28.0569 14.5 28.1895C14.5 28.3221 14.5527 28.4492 14.6464 28.543C14.7402 28.6368 14.8674 28.6894 15 28.6894ZM13 27.6894H12.5C12.3674 27.6894 12.2402 27.7421 12.1465 27.8359C12.0527 27.9296 12 28.0568 12 28.1894C12 28.322 12.0527 28.4492 12.1465 28.5429C12.2402 28.6367 12.3674 28.6894 12.5 28.6894H13C13.1326 28.6894 13.2598 28.6367 13.3535 28.5429C13.4473 28.4492 13.5 28.322 13.5 28.1894C13.5 28.0568 13.4473 27.9296 13.3535 27.8359C13.2598 27.7421 13.1326 27.6894 13 27.6894ZM10.5 27.6894H10C9.8674 27.6894 9.74022 27.7421 9.64646 27.8359C9.5527 27.9296 9.50002 28.0568 9.50002 28.1894C9.50002 28.322 9.5527 28.4492 9.64646 28.5429C9.74022 28.6367 9.8674 28.6894 10 28.6894H10.5C10.6326 28.6894 10.7598 28.6367 10.8535 28.5429C10.9473 28.4492 11 28.322 11 28.1894C11 28.0568 10.9473 27.9296 10.8535 27.8359C10.7598 27.7421 10.6326 27.6894 10.5 27.6894ZM7.99996 27.6894H7.49998C7.36738 27.6894 7.24021 27.7421 7.14644 27.8359C7.05268 27.9296 7 28.0568 7 28.1894C7 28.322 7.05268 28.4492 7.14644 28.5429C7.24021 28.6367 7.36738 28.6894 7.49998 28.6894H7.99996C8.13256 28.6894 8.25974 28.6367 8.3535 28.5429C8.44726 28.4492 8.49994 28.322 8.49994 28.1894C8.49994 28.0568 8.44726 27.9296 8.3535 27.8359C8.25974 27.7421 8.13256 27.6894 7.99996 27.6894Z" fill="black"/>
</g>
<defs>
<clipPath id="clip0_1044_2824">
<rect width="30" height="30" fill="white" transform="translate(0 0.689453)"/>
</clipPath>
</defs>
</svg>
