<svg width="30" height="31" viewBox="0 0 30 31" fill="none" xmlns="http://www.w3.org/2000/svg">
<g clip-path="url(#clip0_1044_2513)">
<path d="M8.88592 13.2179L8.88487 13.2371C8.81094 14.5317 9.53613 15.7445 10.7329 16.3259L10.7451 16.3319C11.1671 16.5339 11.5128 16.8664 11.731 17.2802L11.7359 17.2892C12.3389 18.4374 13.5861 19.1334 14.9157 19.0636L14.9358 19.0624C15.4181 19.0354 15.8966 19.1599 16.3046 19.4184C16.8564 19.7635 17.4941 19.9465 18.145 19.9465C18.7958 19.9465 19.4335 19.7635 19.9853 19.4184C20.3933 19.1599 20.8719 19.0354 21.3541 19.0624L21.3744 19.0636C22.7017 19.1339 23.9505 18.4373 24.5548 17.2873L24.5578 17.281C24.7767 16.8662 25.1235 16.533 25.5467 16.3308L25.5565 16.3259C26.7533 15.7442 27.4787 14.5316 27.4046 13.2368L27.4035 13.2188C27.3789 12.7627 27.5056 12.3114 27.764 11.9348C28.5083 10.8493 28.5083 9.41802 27.7643 8.33235C27.5059 7.95598 27.379 7.50479 27.4035 7.04889L27.4046 7.02976C27.4787 5.73485 26.7533 4.52233 25.5555 3.94033L25.5446 3.93488C25.1235 3.73367 24.7783 3.40236 24.56 2.9899L24.5537 2.97761C23.9505 1.82946 22.7017 1.13372 21.3744 1.20326L21.3539 1.20438C20.8718 1.2314 20.3934 1.10695 19.9856 0.848447H19.9851C19.4333 0.503322 18.7955 0.320313 18.1447 0.320312C17.4939 0.320312 16.8561 0.503322 16.3043 0.848447C15.8963 1.10674 15.4177 1.23108 14.9356 1.2041L14.9153 1.20298C13.5877 1.13261 12.3392 1.82918 11.7362 2.97705L11.7316 2.98557C11.5132 3.39998 11.1671 3.73297 10.7446 3.93516L10.7331 3.94061C9.53641 4.52205 8.81101 5.73492 8.88515 7.02976L8.8862 7.04778C8.91088 7.50374 8.78412 7.95507 8.52566 8.33152C7.7814 9.41718 7.7814 10.8488 8.52566 11.9342C8.78404 12.3107 8.91069 12.762 8.88592 13.2179ZM9.44502 8.96588C9.844 8.38498 10.0396 7.68841 10.0014 6.98473L10.0003 6.9656C9.98114 6.54608 10.0868 6.1303 10.304 5.77084C10.5211 5.41138 10.84 5.12437 11.2202 4.94612L11.2298 4.94144C11.8676 4.63603 12.3899 4.13317 12.7194 3.50746L12.7249 3.49712C13.1255 2.73402 13.9647 2.27147 14.8559 2.31895L14.8755 2.31972C15.5886 2.35991 16.2964 2.17595 16.8997 1.79364C17.273 1.56013 17.7044 1.4363 18.1447 1.4363C18.585 1.4363 19.0165 1.56013 19.3897 1.79364C19.9931 2.17552 20.7006 2.35956 21.4136 2.32007L21.4332 2.31895C22.3288 2.27203 23.164 2.73402 23.5635 3.49489L23.5708 3.50885C23.9003 4.13365 24.4221 4.63577 25.0591 4.94089L25.0684 4.94556C25.8582 5.32956 26.3377 6.12234 26.2894 6.96588L26.2883 6.98578C26.2502 7.68938 26.4459 8.38583 26.8449 8.96658C27.0805 9.31014 27.2065 9.71697 27.2064 10.1335C27.2063 10.5501 27.0801 10.9569 26.8444 11.3003C26.4456 11.8814 26.2501 12.578 26.2883 13.2817L26.2894 13.3005C26.3376 14.1441 25.8582 14.9371 25.0681 15.3214L25.06 15.3252C24.4215 15.6312 23.8986 16.1348 23.5689 16.7614L23.5649 16.7696C23.1639 17.5327 22.3261 17.9955 21.4335 17.9477L21.4142 17.9467C20.7009 17.9069 19.993 18.0909 19.3894 18.473C19.0162 18.7064 18.5849 18.8302 18.1447 18.8302C17.7046 18.8302 17.2732 18.7064 16.9 18.473C16.3512 18.1253 15.7148 17.9409 15.0651 17.9414C15.0021 17.9414 14.9388 17.9431 14.8755 17.9467L14.856 17.9474C14.4251 17.9748 13.9955 17.8783 13.6177 17.6693C13.2399 17.4604 12.9298 17.1477 12.724 16.7682L12.7183 16.7575C12.3893 16.133 11.8678 15.631 11.2312 15.326L11.2207 15.3208C10.4306 14.9368 9.9512 14.1437 9.99979 13.3005L10.0008 13.2806C10.0388 12.577 9.84308 11.8806 9.44425 11.2997C9.20882 10.9562 9.08289 10.5494 9.08303 10.1329C9.08317 9.71646 9.20936 9.30977 9.44502 8.96637V8.96588Z" fill="black"/>
<path d="M14.5409 15.9076C14.8025 16.071 15.147 15.9911 15.3103 15.7295L21.9269 5.12979C21.9657 5.06756 21.9919 4.99829 22.004 4.92593C22.0161 4.85357 22.0138 4.77954 21.9973 4.70807C21.9807 4.6366 21.9503 4.56909 21.9076 4.50939C21.865 4.44969 21.811 4.39897 21.7488 4.36012C21.6866 4.32128 21.6173 4.29508 21.5449 4.283C21.4726 4.27093 21.3985 4.27323 21.3271 4.28977C21.2556 4.30631 21.1881 4.33676 21.1284 4.37939C21.0687 4.42203 21.018 4.476 20.9791 4.53823L14.3628 15.138C14.324 15.2002 14.2978 15.2695 14.2857 15.3418C14.2736 15.4142 14.2759 15.4882 14.2924 15.5597C14.3089 15.6312 14.3394 15.6987 14.382 15.7584C14.4247 15.8181 14.4786 15.8688 14.5409 15.9076H14.5409ZM15.1338 10.161C16.4939 10.161 17.6006 8.89912 17.6006 7.34804C17.6006 5.79697 16.4939 4.53558 15.1338 4.53558C13.7738 4.53558 12.6673 5.79718 12.6673 7.34818C12.6673 8.89919 13.7737 10.1611 15.1338 10.1611V10.161ZM15.1338 5.65259C15.8781 5.65259 16.4836 6.41318 16.4836 7.34811C16.4836 8.28304 15.8781 9.04392 15.1338 9.04392C14.3898 9.04392 13.7844 8.28277 13.7844 7.34804C13.7844 6.41346 14.3898 5.65259 15.1338 5.65259ZM18.6891 12.9193C18.6891 14.4704 19.7955 15.732 21.1556 15.732C22.5157 15.732 23.6224 14.4701 23.6224 12.9194C23.6224 11.3689 22.516 10.1068 21.1559 10.1068C19.7955 10.1068 18.6891 11.368 18.6891 12.9193ZM22.5053 12.9193C22.5053 13.8542 21.8999 14.6149 21.1556 14.6149C20.4116 14.6149 19.8062 13.8542 19.8062 12.9194C19.8062 11.9845 20.4116 11.2238 21.1556 11.2238C21.8999 11.2238 22.5053 11.9838 22.5053 12.9193ZM29.9275 22.1942C29.188 20.8816 27.5477 20.3817 26.2018 21.0586L21.8265 23.1259C21.5296 22.5739 21.0924 22.1099 20.559 21.7808C20.0256 21.4517 19.4148 21.2691 18.7883 21.2514L14.7493 21.1401C14.1096 21.1217 13.4822 20.9597 12.9136 20.6661L12.5025 20.4531C11.4657 19.9127 10.3135 19.6311 9.14427 19.6324C7.97504 19.6336 6.82346 19.9176 5.78775 20.4602L5.81344 19.5292C5.81549 19.4558 5.80306 19.3828 5.77688 19.3142C5.75069 19.2457 5.71126 19.183 5.66083 19.1297C5.6104 19.0764 5.54996 19.0336 5.48297 19.0036C5.41598 18.9737 5.34375 18.9573 5.2704 18.9552L0.841371 18.8334C0.768054 18.8314 0.695057 18.8438 0.626548 18.87C0.55804 18.8962 0.495364 18.9357 0.442101 18.9861C0.388838 19.0365 0.346032 19.0969 0.316128 19.1639C0.286224 19.2309 0.269808 19.3031 0.267818 19.3764L0.000276191 29.0961C-0.0017598 29.1694 0.0106706 29.2424 0.0368574 29.3109C0.0630442 29.3795 0.102474 29.4422 0.152896 29.4955C0.203318 29.5487 0.263743 29.5916 0.33072 29.6215C0.397698 29.6514 0.469916 29.6679 0.543249 29.6699L4.97235 29.7918H4.98785C5.1333 29.7917 5.27297 29.7349 5.37722 29.6334C5.48147 29.532 5.54208 29.3939 5.54618 29.2486L5.55875 28.7836L6.70935 28.1674C7.16087 27.9245 7.6892 27.8667 8.18257 28.0063L15.0533 29.9347C15.0653 29.9383 15.0774 29.9409 15.0896 29.9437C15.5864 30.0476 16.0925 30.0998 16.6 30.0994C17.6746 30.1001 18.7366 29.8683 19.7132 29.4201C19.7371 29.4091 19.7603 29.3966 19.7824 29.3824L29.7445 22.9382C29.8642 22.861 29.9498 22.7409 29.9838 22.6026C30.0178 22.4643 29.9977 22.3182 29.9275 22.1942ZM1.13244 28.5682L1.36912 19.9657L4.6817 20.0568L4.4446 28.6597L1.13244 28.5682ZM19.2098 28.4218C17.9964 28.9694 16.6412 29.1206 15.337 28.8538L8.48453 26.9308C7.7135 26.7128 6.88791 26.8031 6.18222 27.1826L5.59422 27.4973L5.75187 21.7774C7.61481 20.5382 10.0045 20.4108 11.9888 21.4447L12.3998 21.6576C13.1181 22.0286 13.9107 22.2333 14.7188 22.2567L18.7579 22.3679C19.8924 22.4003 20.8559 23.2081 21.0862 24.3198L15.0698 24.1542C14.9965 24.1522 14.9235 24.1646 14.855 24.1908C14.7865 24.217 14.7238 24.2565 14.6705 24.3069C14.6173 24.3573 14.5745 24.4177 14.5446 24.4847C14.5147 24.5517 14.4983 24.6239 14.4963 24.6972C14.4942 24.7705 14.5067 24.8436 14.5328 24.9121C14.559 24.9806 14.5985 25.0433 14.6489 25.0966C14.6993 25.1499 14.7597 25.1927 14.8267 25.2226C14.8937 25.2526 14.9659 25.269 15.0392 25.271L21.6788 25.4537H21.6945C21.84 25.4536 21.9796 25.3967 22.0838 25.2953C22.1879 25.1939 22.2485 25.0558 22.2526 24.9105C22.2593 24.6677 22.2412 24.4249 22.1986 24.1858L26.6855 22.0654L26.6985 22.0591C27.0093 21.9017 27.3608 21.8432 27.7058 21.8915C28.0508 21.9398 28.3727 22.0925 28.6284 22.3291L19.2098 28.4218Z" fill="black"/>
</g>
<defs>
<clipPath id="clip0_1044_2513">
<rect width="30" height="30" fill="white" transform="translate(0 0.271973)"/>
</clipPath>
</defs>
</svg>
