<?xml version="1.0" encoding="UTF-8"?>
<svg version="1.1" xmlns="http://www.w3.org/2000/svg" width="120" height="121">
<path d="M0 0 C2.77319336 1.2434082 2.77319336 1.2434082 5.58984375 2.80078125 C6.62173828 3.36603516 7.65363281 3.93128906 8.71679688 4.51367188 C9.77962891 5.10728516 10.84246094 5.70089844 11.9375 6.3125 C12.99646484 6.89451172 14.05542969 7.47652344 15.14648438 8.07617188 C20.45988725 11.00301825 25.73260134 13.99005791 31 17 C31 28.88 31 40.76 31 53 C20.1875 58.625 20.1875 58.625 16.85229492 60.35791016 C15.49261597 61.06633057 15.49261597 61.06633057 14.10546875 61.7890625 C13.09532715 62.31145508 12.08518555 62.83384766 11.04443359 63.37207031 C8.99037697 64.47042232 6.96164515 65.61731005 4.95947266 66.80761719 C3.51967041 67.65694824 3.51967041 67.65694824 2.05078125 68.5234375 C1.19782471 69.04599121 0.34486816 69.56854492 -0.53393555 70.10693359 C-3 71 -3 71 -5.47241211 70.36108398 C-8.20791096 68.88804176 -10.8594722 67.35005514 -13.4921875 65.69921875 C-15.04486328 64.72758789 -15.04486328 64.72758789 -16.62890625 63.73632812 C-17.70011719 63.06021484 -18.77132812 62.38410156 -19.875 61.6875 C-20.93847656 61.02298828 -22.00195312 60.35847656 -23.09765625 59.67382812 C-25.16279041 58.37702648 -27.21571593 57.0605355 -29.25463867 55.72290039 C-31.86179331 53.99601991 -31.86179331 53.99601991 -34.30200195 52.97827148 C-36.60289699 51.85768113 -37.63648246 51.18637919 -39 49 C-39.85657433 43.53598647 -39.65797529 38.19700504 -39.4375 32.6875 C-39.40236712 31.16869111 -39.37043152 29.64980467 -39.34179688 28.13085938 C-39.26486369 24.41895608 -39.1441903 20.7099689 -39 17 C-34.6656462 14.57713098 -30.32757707 12.16163172 -25.98046875 9.76171875 C-22.86320748 8.04033591 -19.76260831 6.2948343 -16.67578125 4.51953125 C-15.36743336 3.783417 -14.05885255 3.04771655 -12.75 2.3125 C-11.85849243 1.7865625 -11.85849243 1.7865625 -10.94897461 1.25 C-6.79687525 -1.04864193 -4.54444485 -1.09213328 0 0 Z M-10 7 C-5.04944377 10.86757657 0.40822675 13.80684664 5.875 16.875 C6.95136719 17.50664063 8.02773437 18.13828125 9.13671875 18.7890625 C10.18214844 19.37171875 11.22757813 19.954375 12.3046875 20.5546875 C13.7275708 21.36655518 13.7275708 21.36655518 15.17919922 22.19482422 C18.12584202 23.34756583 18.12584202 23.34756583 21.35595703 21.65283203 C22.22849121 21.10739746 23.10102539 20.56196289 24 20 C24 19.34 24 18.68 24 18 C22.97845825 17.47043701 22.97845825 17.47043701 21.9362793 16.93017578 C18.85241996 15.33024125 15.76994754 13.72765268 12.6875 12.125 C11.61564453 11.56941406 10.54378906 11.01382813 9.43945312 10.44140625 C8.41142578 9.90644531 7.38339844 9.37148438 6.32421875 8.8203125 C5.37635498 8.32805176 4.42849121 7.83579102 3.4519043 7.32861328 C1 6 1 6 -2 4 C-5.57575896 4 -7.05295935 5.08840607 -10 7 Z M-17 10 C-17.66 10.66 -18.32 11.32 -19 12 C-15.0689244 14.12094711 -11.13619418 16.23878353 -7.2019043 18.35375977 C-5.86388027 19.07361053 -4.52631124 19.79430767 -3.18920898 20.51586914 C-1.26665478 21.55317744 0.65751784 22.5874259 2.58203125 23.62109375 C3.73936768 24.2442749 4.8967041 24.86745605 6.08911133 25.50952148 C8.9520461 27.06784894 8.9520461 27.06784894 12 28 C12 30.97 12 33.94 12 37 C12.99 36.67 13.98 36.34 15 36 C15 32.7 15 29.4 15 26 C14.22809326 25.58637207 13.45618652 25.17274414 12.66088867 24.74658203 C9.79207603 23.20839912 6.92399351 21.66886578 4.05639648 20.12841797 C2.81612694 19.46251231 1.57556947 18.79714264 0.3347168 18.13232422 C-1.45079656 17.17556936 -3.23525897 16.21687944 -5.01953125 15.2578125 C-6.09307861 14.6817627 -7.16662598 14.10571289 -8.27270508 13.51220703 C-11 12 -11 12 -14 10 C-14.99 10 -15.98 10 -17 10 Z M-28.0625 16 C-29.16271484 16.556875 -29.16271484 16.556875 -30.28515625 17.125 C-31.13400391 17.558125 -31.13400391 17.558125 -32 18 C-27.83535659 22.61088657 -22.11827576 25.3386851 -16.8125 28.4375 C-15.70068359 29.12521484 -14.58886719 29.81292969 -13.44335938 30.52148438 C-7.79008915 34.1067175 -7.79008915 34.1067175 -1.41552734 34.51611328 C0.60852164 33.50609545 2.28042916 32.46307276 4 31 C2.6536956 26.96108679 0.96939339 26.61461963 -2.75 24.64453125 C-3.60996582 24.18478157 -3.60996582 24.18478157 -4.48730469 23.71574402 C-6.32024539 22.73898531 -8.16002997 21.77593942 -10 20.8125 C-11.24002556 20.15252293 -12.47961475 19.49172527 -13.71875 18.83007812 C-20.8315005 14.30207197 -20.8315005 14.30207197 -28.0625 16 Z M-35 23 C-35.46170792 28.81965074 -35.72311376 34.61847371 -35.59375 40.45703125 C-35.57505859 41.41585205 -35.55636719 42.37467285 -35.53710938 43.36254883 C-34.8618389 46.6784338 -33.61779539 48.01215962 -31.125 50.25 C-29.09875111 51.20026102 -27.05363967 52.11048065 -25 53 C-21.76593889 54.90493655 -18.60993481 56.93207471 -15.4375 58.9375 C-13.85636191 59.91065323 -12.27195685 60.87852822 -10.68359375 61.83984375 C-9.99837646 62.25613037 -9.31315918 62.67241699 -8.60717773 63.10131836 C-7.16142598 64.08134169 -7.16142598 64.08134169 -6 64 C-6 55.42 -6 46.84 -6 38 C-9.80646837 35.85981698 -13.61418482 33.72228479 -17.42578125 31.59130859 C-18.72253512 30.86529534 -20.01843897 30.13776169 -21.31347656 29.40869141 C-23.17292516 28.36221765 -25.03534204 27.3212138 -26.8984375 26.28125 C-28.01911621 25.65283203 -29.13979492 25.02441406 -30.29443359 24.37695312 C-32.7911064 22.84880948 -32.7911064 22.84880948 -35 23 Z M21.33984375 25.39453125 C19.41526363 27.70066078 19.62974917 29.53708063 19.5625 32.5 C19.3863156 37.57546601 19.3863156 37.57546601 17.5390625 39.60546875 C14.21610847 41.54736383 11.84747067 42 8 42 C7.67 39.36 7.34 36.72 7 34 C5.686298 34.6433848 4.37407102 35.28978215 3.0625 35.9375 C2.33160156 36.29714844 1.60070312 36.65679687 0.84765625 37.02734375 C-0.96249027 37.86371827 -0.96249027 37.86371827 -2 39 C-2.08737645 40.85369611 -2.10698153 42.71067541 -2.09765625 44.56640625 C-2.09443359 45.69111328 -2.09121094 46.81582031 -2.08789062 47.97460938 C-2.07951172 49.15861328 -2.07113281 50.34261719 -2.0625 51.5625 C-2.05798828 52.75037109 -2.05347656 53.93824219 -2.04882812 55.16210938 C-2.03699675 58.10812226 -2.02051287 61.05403681 -2 64 C2.10693899 62.72287446 5.81593585 61.18709006 9.6171875 59.1796875 C10.53612793 58.69741699 11.45506836 58.21514648 12.40185547 57.71826172 C13.54799316 57.10998535 14.69413086 56.50170898 15.875 55.875 C19.54625 53.93625 23.2175 51.9975 27 50 C27 41.09 27 32.18 27 23 C24.83150471 23 23.09087443 24.25327125 21.33984375 25.39453125 Z " fill="#2E2E2E" transform="translate(89,43)"/>
<path d="M0 0 C3.78060968 1.94828965 6.64138671 4.92416012 8 9 C8 9.99 8 10.98 8 12 C9.1446875 12.37125 9.1446875 12.37125 10.3125 12.75 C13 14 13 14 14.33740234 16.04223633 C15.85066736 18.22569784 15.85066736 18.22569784 18.43603516 18.5300293 C19.84828369 18.55190308 19.84828369 18.55190308 21.2890625 18.57421875 C22.82433594 18.61579102 22.82433594 18.61579102 24.390625 18.65820312 C25.99164063 18.67270508 25.99164063 18.67270508 27.625 18.6875 C29.7422636 18.72938831 31.85946206 18.77476628 33.9765625 18.82421875 C35.38542725 18.84101685 35.38542725 18.84101685 36.82275391 18.8581543 C39 19 39 19 40 20 C40.07325168 22.86267567 40.09238205 25.700719 40.0625 28.5625 C40.05798828 29.36880859 40.05347656 30.17511719 40.04882812 31.00585938 C40.03700518 33.00393756 40.01906914 35.00197783 40 37 C38.0625 37.5625 38.0625 37.5625 36 38 C35 37 35 37 34.90234375 33.83984375 C34.93489583 30.2265625 34.96744792 26.61328125 35 23 C29.39 23 23.78 23 18 23 C18.495 23.99 18.495 23.99 19 25 C19.125 28.0625 19.125 28.0625 19 31 C18 32 18 32 16.09544373 32.12025452 C15.26271439 32.11803391 14.42998505 32.11581329 13.57202148 32.11352539 C12.63112167 32.11344986 11.69022186 32.11337433 10.72080994 32.11329651 C9.69790359 32.10813522 8.67499725 32.10297394 7.62109375 32.09765625 C6.57929459 32.0962413 5.53749542 32.09482635 4.46412659 32.09336853 C1.12188906 32.0877508 -2.22028257 32.0751953 -5.5625 32.0625 C-7.82226466 32.05748728 -10.08203037 32.05292398 -12.34179688 32.04882812 C-17.89455682 32.03777561 -23.44726722 32.0204991 -29 32 C-29 29.03 -29 26.06 -29 23 C-34.61 23 -40.22 23 -46 23 C-46 53.69 -46 84.38 -46 116 C-19.27 116 7.46 116 35 116 C35.495 114.02 35.495 114.02 36 112 C37.98 112.99 37.98 112.99 40 114 C40 115.65 40 117.3 40 119 C10.3 119 -19.4 119 -50 119 C-50 86 -50 53 -50 19 C-42.08 19 -34.16 19 -26 19 C-25.34 17.68 -24.68 16.36 -24 15 C-23.21625 14.4225 -22.4325 13.845 -21.625 13.25 C-19.04724965 11.0404997 -18.34268212 9.9230574 -17 6.9375 C-15.77814556 4.35428806 -14.99207574 2.99254188 -12.875 1 C-8.53164463 -0.5107323 -4.53788204 -0.78414602 0 0 Z M-12 7 C-13.04577498 8.94582721 -13.92969569 10.93534113 -14.828125 12.953125 C-16.47658269 15.83243111 -18.70393437 17.43303812 -21.4140625 19.28515625 C-23.71688649 21.51647792 -23.71688649 21.51647792 -25 28 C-12.13 28 0.74 28 14 28 C13.04118476 22.24710854 12.80167397 20.90727602 9 17 C8.13375 16.525625 7.2675 16.05125 6.375 15.5625 C3.22166875 13.48793996 3.03446147 11.54672502 2 8 C0.23606429 5.44229323 -0.8617751 5.04206845 -3.875 4.125 C-7.78565436 3.96857383 -9.04564962 4.43437994 -12 7 Z " fill="#1B1B1B" transform="translate(50,2)"/>
<path d="M0 0 C-0.66 0.66 -1.32 1.32 -2 2 C-2.70710678 3.64991582 -3.37943989 5.31562256 -4 7 C-0.2395456 9.19347168 3.53221928 11.36554421 7.31591797 13.51855469 C8.60146674 14.25398855 9.88373933 14.99518014 11.16259766 15.7421875 C13.0011314 16.81478438 14.85043933 17.86614758 16.703125 18.9140625 C17.81333008 19.5529541 18.92353516 20.1918457 20.06738281 20.85009766 C22.87951664 22.33680752 22.87951664 22.33680752 25.20605469 21.13037109 C25.79805664 20.75734863 26.39005859 20.38432617 27 20 C27.99 20.33 28.98 20.66 30 21 C29.67 21.66 29.34 22.32 29 23 C29.66 23.33 30.32 23.66 31 24 C26.25 27 26.25 27 24 27 C23.67 28.32 23.34 29.64 23 31 C22.67 31 22.34 31 22 31 C22 29.35 22 27.7 22 26 C21.29786377 25.90017822 20.59572754 25.80035645 19.87231445 25.69750977 C16.5280669 24.88539627 14.03308628 23.54191065 11.04296875 21.83984375 C9.93115234 21.21142578 8.81933594 20.58300781 7.67382812 19.93554688 C6.51163325 19.26968046 5.34952494 18.60366294 4.1875 17.9375 C3.00621783 17.26694627 1.82458055 16.59701769 0.64257812 15.92773438 C-2.24183374 14.29127213 -5.1224665 12.64851754 -8 11 C-8 13.31 -8 15.62 -8 18 C-8.33 18 -8.66 18 -9 18 C-9.33 16.02 -9.66 14.04 -10 12 C-10.33 20.25 -10.66 28.5 -11 37 C-11.33 37 -11.66 37 -12 37 C-12.24828873 32.5529579 -12.42909832 28.10963106 -12.54931641 23.65771484 C-12.59943968 22.14593236 -12.66756841 20.63463087 -12.75439453 19.12451172 C-13.02741828 14.2518409 -13.11501555 9.77311915 -12 5 C-9.04955415 1.78502239 -4.41783043 -2.20891521 0 0 Z " fill="#303030" transform="translate(62,55)"/>
<path d="M0 0 C2.47923801 -0.02685095 4.9581884 -0.04676547 7.4375 -0.0625 C8.14455078 -0.07087891 8.85160156 -0.07925781 9.58007812 -0.08789062 C11.38693559 -0.09653588 13.19387603 -0.05220011 15 0 C16 1 16 1 16.09765625 4.81640625 C16.09098089 6.39846682 16.07901875 7.98051159 16.0625 9.5625 C16.05798828 10.36880859 16.05347656 11.17511719 16.04882812 12.00585938 C16.03700518 14.00393756 16.01906914 16.00197783 16 18 C13.35409986 18.02684679 10.70846904 18.04676357 8.0625 18.0625 C7.30775391 18.07087891 6.55300781 18.07925781 5.77539062 18.08789062 C3.85005687 18.09652441 1.92464419 18.05224333 0 18 C-1.7462388 16.2537612 -1.13221151 14.00121676 -1.13671875 11.67773438 C-1.13285156 10.97970703 -1.12898437 10.28167969 -1.125 9.5625 C-1.12886719 8.86833984 -1.13273438 8.17417969 -1.13671875 7.45898438 C-1.12663994 2.25327988 -1.12663994 2.25327988 0 0 Z M4 5 C4 7.64 4 10.28 4 13 C6.64 13 9.28 13 12 13 C12 10.36 12 7.72 12 5 C9.36 5 6.72 5 4 5 Z " fill="#383838" transform="translate(11,42)"/>
<path d="M0 0 C0.70253906 0.00386719 1.40507812 0.00773437 2.12890625 0.01171875 C2.83144531 0.00785156 3.53398437 0.00398438 4.2578125 0 C9.50229247 0.01010497 9.50229247 0.01010497 10.62890625 1.13671875 C10.70215793 3.99939442 10.7212883 6.83743775 10.69140625 9.69921875 C10.68689453 10.50552734 10.68238281 11.31183594 10.67773438 12.14257812 C10.66591143 14.14065631 10.64797539 16.13869658 10.62890625 18.13671875 C7.98300611 18.16356554 5.33737529 18.18348232 2.69140625 18.19921875 C1.93666016 18.20759766 1.18191406 18.21597656 0.40429688 18.22460938 C-1.52103688 18.23324316 -3.44644956 18.18896208 -5.37109375 18.13671875 C-7.19225378 16.31555872 -6.50344455 13.83000111 -6.5078125 11.41015625 C-6.50394531 10.65992187 -6.50007812 9.9096875 -6.49609375 9.13671875 C-6.49996094 8.38648437 -6.50382813 7.63625 -6.5078125 6.86328125 C-6.49621861 0.44026623 -6.45981643 0.01244666 0 0 Z M-1.37109375 5.13671875 C-1.37109375 8.10671875 -1.37109375 11.07671875 -1.37109375 14.13671875 C1.26890625 14.13671875 3.90890625 14.13671875 6.62890625 14.13671875 C6.62890625 11.16671875 6.62890625 8.19671875 6.62890625 5.13671875 C3.98890625 5.13671875 1.34890625 5.13671875 -1.37109375 5.13671875 Z " fill="#343434" transform="translate(16.37109375,90.86328125)"/>
<path d="M0 0 C1.4883163 0.00574353 2.97660671 0.01875734 4.46484375 0.03515625 C7.08421875 0.05578125 9.70359375 0.07640625 12.40234375 0.09765625 C12.40234375 5.70765625 12.40234375 11.31765625 12.40234375 17.09765625 C9.55396254 18.52184685 7.07446467 18.26761133 3.90234375 18.28515625 C2.73703125 18.29933594 1.57171875 18.31351563 0.37109375 18.328125 C-2.59765625 18.09765625 -2.59765625 18.09765625 -4.59765625 16.09765625 C-4.76929356 13.53473308 -4.83030183 11.09419768 -4.78515625 8.53515625 C-4.78451172 7.83712891 -4.78386719 7.13910156 -4.78320312 6.41992188 C-4.72828152 0.1283464 -4.72828152 0.1283464 0 0 Z M0.40234375 4.09765625 C0.40234375 7.06765625 0.40234375 10.03765625 0.40234375 13.09765625 C3.04234375 13.09765625 5.68234375 13.09765625 8.40234375 13.09765625 C8.40234375 10.12765625 8.40234375 7.15765625 8.40234375 4.09765625 C5.76234375 4.09765625 3.12234375 4.09765625 0.40234375 4.09765625 Z " fill="#2F2F2F" transform="translate(14.59765625,66.90234375)"/>
<path d="M0 0 C0.33 0 0.66 0 1 0 C1 30.69 1 61.38 1 93 C27.73 93 54.46 93 82 93 C82.495 91.02 82.495 91.02 83 89 C84.485 89.495 84.485 89.495 86 90 C84.9974823 91.97161865 84.9974823 91.97161865 83 94 C80.21372304 94.38164562 77.82532002 94.50637662 75.0402832 94.45410156 C73.80567368 94.45482477 73.80567368 94.45482477 72.54612255 94.45556259 C69.88056959 94.4525758 67.21613415 94.42211217 64.55078125 94.390625 C62.90572651 94.38474419 61.26066431 94.38066327 59.61560059 94.37841797 C53.51445295 94.35744257 47.41346551 94.30159765 41.3125 94.25 C27.679375 94.1675 14.04625 94.085 0 94 C0 62.98 0 31.96 0 0 Z " fill="#5E5E5E" transform="translate(3,25)"/>
<path d="M0 0 C2.4375 1.625 2.4375 1.625 4 4 C4.5625 6.9375 4.5625 6.9375 4 10 C1.9375 12.9375 1.9375 12.9375 -1 15 C-4.8427383 15.06625411 -6.99200716 14.81899419 -10 12.375 C-11.45635054 8.91616747 -10.91305869 6.58701629 -10 3 C-7.67133148 -1.01048467 -4.26353269 -0.52359173 0 0 Z M-6 5 C-6 6.65 -6 8.3 -6 10 C-4.35 10 -2.7 10 -1 10 C-0.67 9.01 -0.34 8.02 0 7 C-0.97850195 5.97895449 -1.97980427 4.9793879 -3 4 C-4.2236068 3.9254644 -4.2236068 3.9254644 -6 5 Z " fill="#353535" transform="translate(48,9)"/>
<path d="M0 0 C-0.66 0.66 -1.32 1.32 -2 2 C-2.70710678 3.64991582 -3.37943989 5.31562256 -4 7 C-0.535 8.98 -0.535 8.98 3 11 C2.01 11.33 1.02 11.66 0 12 C0.33 12.99 0.66 13.98 1 15 C-2.0831351 13.80100302 -5.06279492 12.52299523 -8 11 C-8 13.31 -8 15.62 -8 18 C-8.33 18 -8.66 18 -9 18 C-9.33 16.02 -9.66 14.04 -10 12 C-10.33 20.25 -10.66 28.5 -11 37 C-11.33 37 -11.66 37 -12 37 C-12.24828873 32.5529579 -12.42909832 28.10963106 -12.54931641 23.65771484 C-12.59943968 22.14593236 -12.66756841 20.63463087 -12.75439453 19.12451172 C-13.02741828 14.2518409 -13.11501555 9.77311915 -12 5 C-9.04955415 1.78502239 -4.41783043 -2.20891521 0 0 Z " fill="#3D3D3D" transform="translate(62,55)"/>
<path d="M0 0 C0.99 0.495 0.99 0.495 2 1 C2.97946721 4.99695625 2.9945939 8.76783349 2.93579102 12.86328125 C2.90156515 19.75497464 2.90156515 19.75497464 6.2890625 25.59765625 C8.79749957 27.3182321 11.22867869 28.75265393 14 30 C13.67 30.99 13.34 31.98 13 33 C7.9917732 32.53047874 3.34500931 30.81325334 0 27 C-1.02033561 22.37276266 -0.75340008 17.89733042 -0.5 13.1875 C-0.46390625 11.92228516 -0.4278125 10.65707031 -0.390625 9.35351562 C-0.29640876 6.23260256 -0.16498197 3.11784192 0 0 Z " fill="#1E1E1E" transform="translate(51,66)"/>
<path d="M0 0 C9.9 0 19.8 0 30 0 C30 1.32 30 2.64 30 4 C20.1 4 10.2 4 0 4 C0 2.68 0 1.36 0 0 Z " fill="#202020" transform="translate(30,49)"/>
<path d="M0 0 C8.91 0 17.82 0 27 0 C27 1.32 27 2.64 27 4 C18.09 4 9.18 4 0 4 C0 2.68 0 1.36 0 0 Z " fill="#222222" transform="translate(29,98)"/>
<path d="M0 0 C1.11858398 0.00580078 1.11858398 0.00580078 2.25976562 0.01171875 C3.37254883 0.00591797 3.37254883 0.00591797 4.5078125 0 C10.06899561 0.01008374 10.06899561 0.01008374 12.32226562 1.13671875 C11.99226563 2.45671875 11.66226563 3.77671875 11.32226562 5.13671875 C5.38226563 5.13671875 -0.55773438 5.13671875 -6.67773438 5.13671875 C-6.67773438 -0.88082735 -5.51896419 0.01002537 0 0 Z " fill="#4B4B4B" transform="translate(36.677734375,72.86328125)"/>
<path d="M0 0 C0.99 0.33 1.98 0.66 3 1 C1.991745 2.97161865 1.991745 2.97161865 0 5 C-2.75654067 5.38169889 -5.11265662 5.50651565 -7.86791992 5.45410156 C-9.06826622 5.45497772 -9.06826622 5.45497772 -10.29286194 5.45587158 C-12.93917143 5.45308376 -15.58435594 5.42195985 -18.23046875 5.390625 C-20.06463506 5.38316507 -21.89880933 5.37747097 -23.73298645 5.37347412 C-28.56157418 5.35819823 -33.38968097 5.31889967 -38.21807861 5.2746582 C-43.14466851 5.23374759 -48.07133609 5.21547211 -52.99804688 5.1953125 C-62.66557595 5.15240724 -72.33274799 5.08413232 -82 5 C-82 4.67 -82 4.34 -82 4 C-55.27 4 -28.54 4 -1 4 C-0.67 2.68 -0.34 1.36 0 0 Z " fill="#9B9B9B" transform="translate(86,114)"/>
<path d="M0 0 C3.3 1.98 6.6 3.96 10 6 C9.34 7.32 8.68 8.64 8 10 C3.89041233 8.54955729 0.56741255 6.48889248 -3 4 C-2.01 2.68 -1.02 1.36 0 0 Z " fill="#3B3B3B" transform="translate(65,96)"/>
<path d="M0 0 C0.99 0.33 1.98 0.66 3 1 C1.79174805 2.97558594 1.79174805 2.97558594 0 5 C-2.17651367 5.45410156 -2.17651367 5.45410156 -4.66796875 5.390625 C-5.56064453 5.37773438 -6.45332031 5.36484375 -7.37304688 5.3515625 C-8.30181641 5.31804687 -9.23058594 5.28453125 -10.1875 5.25 C-11.12787109 5.23195313 -12.06824219 5.21390625 -13.03710938 5.1953125 C-15.35909889 5.1481655 -17.6790369 5.08238231 -20 5 C-20 4.67 -20 4.34 -20 4 C-13.73 4 -7.46 4 -1 4 C-0.67 2.68 -0.34 1.36 0 0 Z " fill="#8E8E8E" transform="translate(86,114)"/>
</svg>
