<svg width="26" height="30" viewBox="0 0 26 30" fill="none" xmlns="http://www.w3.org/2000/svg">
<path d="M12.3253 14.4511C14.3106 14.4511 16.0297 13.739 17.4344 12.3341C18.8391 10.9295 19.5511 9.21084 19.5511 7.22534C19.5511 5.24043 18.8391 3.52159 17.4342 2.11646C16.0293 0.712028 14.3104 0 12.3253 0C10.3398 0 8.62104 0.712028 7.21644 2.11669C5.81184 3.52135 5.09951 5.24025 5.09951 7.22534C5.09951 9.21084 5.81178 10.9297 7.21667 12.3344C8.62157 13.7388 10.3405 14.4511 12.3253 14.4511ZM24.9685 23.0684C24.9279 22.4839 24.846 21.8462 24.7254 21.1729C24.6036 20.4944 24.4469 19.8531 24.2591 19.267C24.0653 18.6611 23.8016 18.0629 23.4757 17.4895C23.1374 16.8944 22.7401 16.3762 22.2942 15.9498C21.828 15.5037 21.2571 15.1451 20.597 14.8834C19.9393 14.6232 19.2102 14.4914 18.4305 14.4914C18.1242 14.4914 17.8281 14.617 17.2561 14.9895C16.8495 15.2542 16.4417 15.5171 16.0327 15.7781C15.6397 16.0286 15.1073 16.2632 14.4498 16.4756C13.8082 16.6832 13.1568 16.7884 12.5139 16.7884C11.871 16.7884 11.2198 16.6832 10.5775 16.4756C9.92071 16.2633 9.38833 16.0288 8.99575 15.7784C8.54048 15.4874 8.12857 15.222 7.77126 14.9892C7.19998 14.6168 6.90355 14.4911 6.59734 14.4911C5.81729 14.4911 5.08856 14.6232 4.43096 14.8837C3.77132 15.1448 3.20026 15.5035 2.73357 15.95C2.28796 16.3767 1.89041 16.8946 1.55256 17.4895C1.22689 18.0628 0.963223 18.6609 0.769103 19.2672C0.581603 19.8534 0.424866 20.4944 0.303108 21.1729C0.182464 21.8453 0.100551 22.4832 0.0600039 23.0691C0.0196693 23.6588 -0.000322943 24.2496 6.26939e-05 24.8407C6.26939e-05 26.4067 0.497873 27.6744 1.47955 28.6094C2.4491 29.5321 3.73194 30.0001 5.292 30.0001H19.7372C21.2972 30.0001 22.5796 29.5323 23.5494 28.6095C24.5313 27.6751 25.0291 26.4072 25.0291 24.8404C25.0289 24.236 25.0085 23.6397 24.9685 23.0684Z" fill="#18191B"/>
</svg>
