<svg width="14" height="18" viewBox="0 0 14 18" fill="none" xmlns="http://www.w3.org/2000/svg">
<path d="M7.51861 1H6.48115C6.04054 1 5.68335 1.48197 5.68335 2.0765V15.9235C5.68335 16.518 6.04054 17 6.48115 17H7.51861C7.95923 17 8.31642 16.518 8.31642 15.9235V2.0765C8.31642 1.48197 7.95923 1 7.51861 1Z" stroke="#000" stroke-linecap="round" stroke-linejoin="round"/>
<path d="M12.2022 9.948H11.1647C10.7241 9.948 10.3669 10.43 10.3669 11.0245V15.9236C10.3669 16.5181 10.7241 17.0001 11.1647 17.0001H12.2022C12.6428 17.0001 13 16.5181 13 15.9236V11.0245C13 10.43 12.6428 9.948 12.2022 9.948Z" stroke="#000" stroke-linecap="round" stroke-linejoin="round"/>
<path d="M2.83526 5.56372H1.79781C1.35719 5.56372 1 6.04569 1 6.64023V15.9235C1 16.5181 1.35719 17 1.79781 17H2.83526C3.27588 17 3.63307 16.5181 3.63307 15.9235V6.64023C3.63307 6.04569 3.27588 5.56372 2.83526 5.56372Z" stroke="#000" stroke-linecap="round" stroke-linejoin="round"/>
</svg>
