<svg width="14" height="15" viewBox="0 0 14 15" fill="none" xmlns="http://www.w3.org/2000/svg">
<path d="M0 0H6.36364V6.81818H0V0ZM1.27273 1.36364V5.45455H5.09091V1.36364H1.27273Z" fill="#000"/>
<path fill-rule="evenodd" clip-rule="evenodd" d="M2.54565 2.72729H3.81838V4.09093H2.54565V2.72729Z" fill="#000"/>
<path d="M7.63647 0H14.0001V6.81818H7.63647V0ZM8.9092 1.36364V5.45455H12.7274V1.36364H8.9092Z" fill="#000"/>
<path fill-rule="evenodd" clip-rule="evenodd" d="M10.1821 2.72729H11.4549V4.09093H10.1821V2.72729Z" fill="#000"/>
<path d="M0 8.18188H6.36364V15.0001H0V8.18188ZM1.27273 9.54552V13.6364H5.09091V9.54552H1.27273Z" fill="#000"/>
<path fill-rule="evenodd" clip-rule="evenodd" d="M2.54565 10.9092H3.81838V12.2728H2.54565V10.9092Z" fill="#000"/>
<path d="M14.0001 12.2728H11.4547V15.0001H7.63647V8.18188V12.2728H8.9092V13.6364H10.1819V9.54552H8.9092V8.18188H8.27284H10.1819V9.54552H11.4547V10.9092H12.7274V8.18188H14.0001V12.2728ZM14.0001 13.6364V15.0001H12.7274V13.6364H14.0001Z" fill="#000"/>
</svg>
