<svg width="18" height="17" viewBox="0 0 18 17" fill="none" xmlns="http://www.w3.org/2000/svg">
<path d="M17.1818 6.26297H13.2627L9.67909 0.393392C9.60396 0.271518 9.50245 0.171835 9.38359 0.103206C9.26473 0.034578 9.13221 -0.000869248 8.99781 1.61894e-05C8.8634 0.000901627 8.73128 0.0380925 8.61319 0.108282C8.4951 0.178471 8.3947 0.279484 8.32091 0.40234L4.73727 6.26297H0.818182C0.368182 6.26297 0 6.66561 0 7.15772C0 7.23825 -3.04796e-08 7.31878 0.0327272 7.39931L2.11091 15.6937C2.29909 16.4453 2.92909 17 3.68182 17H14.3182C15.0709 17 15.7009 16.4453 15.8973 15.6937L17.9755 7.39931L18 7.15772C18 6.66561 17.6318 6.26297 17.1818 6.26297ZM9 2.50501L11.2909 6.26297H6.70909L9 2.50501ZM14.3182 15.2105H3.68182L1.89 8.05247H16.1182L14.3182 15.2105ZM9 9.84198C8.1 9.84198 7.36364 10.6473 7.36364 11.6315C7.36364 12.6157 8.1 13.421 9 13.421C9.9 13.421 10.6364 12.6157 10.6364 11.6315C10.6364 10.6473 9.9 9.84198 9 9.84198Z" fill="#000"/>
</svg>
