<svg width="17" height="17" viewBox="0 0 17 17" fill="#000" xmlns="http://www.w3.org/2000/svg">
<path d="M3.03579 1.26338e-06C2.92314 5.33467e-06 2.81271 0.0337664 2.71685 0.0975074C2.621 0.161248 2.5435 0.252455 2.49303 0.360924L0.0645805 5.59169C0.0120614 5.70431 -0.00911774 5.83088 0.003592 5.95616C0.0163017 6.08144 0.0623587 6.2001 0.13622 6.29785L6.09443 14.195C6.07823 14.0409 6.07052 13.8859 6.07136 13.7308C6.07136 13.2665 6.16121 12.8245 6.32392 12.4244L1.88228 6.53846H5.01862L6.57891 11.9196C6.83268 11.5116 7.16781 11.1677 7.56122 10.9166L6.28992 6.53846H8.09912C8.25802 6.05607 8.50304 5.61182 8.82037 5.23077H6.24135L7.15202 1.30769H9.8476L10.4911 4.08654C10.885 3.95988 11.296 3.90594 11.7066 3.927L11.0995 1.30769H13.5886L15.41 5.23077H14.2504C14.5637 5.60869 14.8114 6.05069 14.9704 6.53846H15.1161L15.0129 6.67577C15.1964 7.30723 15.2285 7.9784 15.1064 8.62685L16.8634 6.29654C16.9372 6.19905 16.9834 6.0807 16.9963 5.95568C17.0092 5.83066 16.9884 5.70428 16.9363 5.59169L14.5078 0.360924C14.4572 0.252256 14.3796 0.160918 14.2835 0.0971635C14.1874 0.033409 14.0767 -0.000237636 13.9638 1.26338e-06H3.03579ZM1.58965 5.23077L3.41099 1.30769H5.90015L4.98948 5.23077H1.58965ZM13.9638 7.84615C13.9638 8.5398 13.708 9.20503 13.2526 9.69551C12.7971 10.186 12.1794 10.4615 11.5354 10.4615C10.8913 10.4615 10.2736 10.186 9.8182 9.69551C9.36278 9.20503 9.10693 8.5398 9.10693 7.84615C9.10693 7.15251 9.36278 6.48728 9.8182 5.9968C10.2736 5.50632 10.8913 5.23077 11.5354 5.23077C12.1794 5.23077 12.7971 5.50632 13.2526 5.9968C13.708 6.48728 13.9638 7.15251 13.9638 7.84615ZM15.7852 13.7308C15.7852 15.3588 14.5709 17 11.5354 17C8.49981 17 7.28559 15.3654 7.28559 13.7308C7.28559 13.2105 7.47748 12.7116 7.81904 12.3438C8.16061 11.9759 8.62388 11.7692 9.10693 11.7692H13.9638C14.4469 11.7692 14.9101 11.9759 15.2517 12.3438C15.5933 12.7116 15.7852 13.2105 15.7852 13.7308Z" fill="#000"/>
</svg>
