<svg width="17" height="18" viewBox="0 0 17 18" fill="none" xmlns="http://www.w3.org/2000/svg">
<path fill-rule="evenodd" clip-rule="evenodd" d="M4.54243 0C3.8669 0 3.4039 1.24754e-08 2.99066 0.111349C2.56297 0.227873 2.16475 0.432395 1.82186 0.711633C1.47897 0.990871 1.19908 1.33858 1.00036 1.73219C0.808914 2.1106 0.718676 2.56186 0.58627 3.21991L0.0633929 5.81358C-0.0292095 6.26826 -0.0202629 6.73756 0.0896024 7.18843C0.199468 7.6393 0.40758 8.06077 0.699279 8.42316V10.7213C0.699279 12.2601 0.699279 13.4791 0.828312 14.4327C0.961561 15.4139 1.24155 16.2084 1.87238 16.8354C2.5032 17.4617 3.30354 17.7396 4.29279 17.8719C5.25337 18 6.48129 18 8.03052 18H8.96917C10.5192 18 11.7472 18 12.7077 17.8719C13.6961 17.7396 14.4965 17.4617 15.1282 16.8354C15.759 16.2084 16.039 15.4139 16.1722 14.4327C16.3013 13.4782 16.3013 12.2601 16.3013 10.7213V8.424C16.5929 8.06144 16.801 7.6398 16.9107 7.18877C17.0204 6.73775 17.0291 6.26832 16.9363 5.81358L16.4134 3.21991C16.2819 2.56186 16.1908 2.1106 16.0002 1.73219C15.8014 1.33849 15.5213 0.990729 15.1783 0.711486C14.8353 0.432243 14.4369 0.227769 14.009 0.111349C13.5966 1.24754e-08 13.1336 0 12.4573 0H4.54243ZM13.7864 9.62791C14.2156 9.62868 14.6407 9.54383 15.0362 9.37842V10.6744C15.0362 12.271 15.0345 13.4054 14.9182 14.266C14.8043 15.1074 14.5901 15.593 14.2334 15.9472C13.8766 16.3013 13.3875 16.514 12.5382 16.627C12.1077 16.6795 11.6748 16.7113 11.2412 16.7224V14.4151C11.2412 14.0467 11.2412 13.7286 11.2175 13.469C11.1922 13.1927 11.1366 12.9198 10.9865 12.6628C10.8201 12.3764 10.5807 12.1384 10.2924 11.9729C10.0335 11.8247 9.75855 11.7695 9.48024 11.7444C9.2188 11.7209 8.89833 11.7209 8.52726 11.7209H8.47244C8.10136 11.7209 7.78173 11.7209 7.51945 11.7444C7.24115 11.7695 6.96706 11.8247 6.70815 11.9729C6.4195 12.1383 6.17982 12.3762 6.01323 12.6628C5.86396 12.9198 5.80829 13.1927 5.78299 13.4682C5.75938 13.7294 5.75938 14.0467 5.75938 14.4142V16.7224C5.32517 16.7114 4.89174 16.6795 4.46062 16.627C3.61305 16.514 3.12391 16.3013 2.76717 15.9472C2.41044 15.593 2.19623 15.1074 2.08237 14.2652C1.96515 13.4054 1.9643 12.271 1.9643 10.6744V9.37842C2.6383 9.66061 3.38911 9.70605 4.09265 9.50725C4.79619 9.30844 5.41034 8.87728 5.83359 8.28502C6.13959 8.70211 6.54079 9.04126 7.00432 9.27469C7.46785 9.50811 7.98051 9.62916 8.50027 9.62791C9.02003 9.62916 9.53268 9.50811 9.99621 9.27469C10.4597 9.04126 10.861 8.70211 11.1669 8.28502C11.4634 8.70065 11.8561 9.03955 12.3119 9.27323C12.7677 9.50691 13.2734 9.62855 13.7864 9.62791ZM7.02441 16.7425C7.35163 16.7436 7.70302 16.7442 8.07859 16.7442H8.92194C9.29751 16.7442 9.64891 16.7436 9.97613 16.7425V14.4419C9.97613 14.0392 9.97529 13.7788 9.95758 13.582C9.94071 13.3937 9.91119 13.325 9.89095 13.2907C9.8355 13.1955 9.75581 13.1164 9.65987 13.0613C9.6253 13.0412 9.55614 13.0127 9.36639 12.9952C9.07804 12.9777 8.78911 12.9716 8.50027 12.9767C8.09462 12.9767 7.83233 12.9767 7.63415 12.9952C7.44355 13.0119 7.37524 13.0412 7.34066 13.0613C7.24441 13.1162 7.16443 13.1954 7.10874 13.2907C7.08934 13.3242 7.05983 13.3937 7.04296 13.582C7.02525 13.7788 7.02441 14.0392 7.02441 14.4419V16.7425ZM5.69191 1.25581H4.63604C3.83148 1.25581 3.55233 1.26167 3.32631 1.32279C3.06975 1.39265 2.83084 1.51528 2.62511 1.68274C2.41938 1.85019 2.25142 2.05872 2.13213 2.29479C2.02671 2.50326 1.96683 2.77284 1.80913 3.55647L1.3048 6.05972C1.25105 6.31728 1.2508 6.58302 1.30404 6.84069C1.35729 7.09835 1.46292 7.34253 1.61448 7.55828C1.76604 7.77403 1.96035 7.95682 2.1855 8.09548C2.41066 8.23413 2.66195 8.32573 2.92399 8.36467C3.18603 8.40362 3.45332 8.38909 3.70951 8.32198C3.9657 8.25487 4.20541 8.13658 4.41397 7.97435C4.62254 7.81213 4.79557 7.60937 4.9225 7.37848C5.04943 7.14759 5.12758 6.89343 5.15217 6.63153L5.21036 6.05721L5.21373 6.02205L5.69191 1.25581ZM6.46864 6.17442L6.96453 1.25581H10.036L10.5285 6.14679C10.5561 6.42665 10.5247 6.70914 10.4362 6.97625C10.3477 7.24336 10.204 7.48923 10.0145 7.69817C9.82491 7.90712 9.59356 8.07454 9.33518 8.18978C9.0768 8.30501 8.79707 8.36552 8.51382 8.36745C8.23057 8.36938 7.95003 8.31268 7.69008 8.20097C7.43014 8.08927 7.1965 7.925 7.00407 7.71866C6.81164 7.51232 6.66464 7.26843 6.57245 7.00254C6.48026 6.73666 6.4449 6.45462 6.46864 6.17442ZM13.6742 1.32279C13.4482 1.26167 13.1691 1.25581 12.3645 1.25581H11.3069L11.8492 6.6307C11.8746 6.89184 11.9533 7.14512 12.0804 7.37511C12.2076 7.6051 12.3806 7.80699 12.5889 7.96848C12.7971 8.12997 13.0364 8.24768 13.2919 8.31445C13.5475 8.38122 13.8141 8.39564 14.0755 8.35684C14.3368 8.31804 14.5875 8.22684 14.8123 8.08877C15.037 7.95071 15.231 7.76868 15.3826 7.55377C15.5342 7.33886 15.6401 7.09557 15.694 6.83871C15.7478 6.58186 15.7484 6.31681 15.6957 6.05972L15.1923 3.55647C15.0337 2.77284 14.9738 2.50326 14.8692 2.29479C14.7499 2.05863 14.5818 1.85005 14.3759 1.68259C14.17 1.51513 13.9309 1.39254 13.6742 1.32279Z" fill="#000"/>
</svg>
