<svg width="20" height="17" viewBox="0 0 20 17" fill="none" xmlns="http://www.w3.org/2000/svg">
<path d="M3.57152 1.26338e-06C3.43899 5.33467e-06 3.30907 0.0337664 3.1963 0.0975074C3.08353 0.161248 2.99236 0.252455 2.93298 0.360924L0.075977 5.59169C0.0141899 5.70431 -0.0107268 5.83088 0.00422588 5.95616C0.0191785 6.08144 0.0733632 6.2001 0.160259 6.29785L7.16992 14.195C7.15085 14.0409 7.14179 13.8859 7.14278 13.7308C7.14278 13.2665 7.24849 12.8245 7.4399 12.4244L2.21444 6.53846H5.90426L7.73989 11.9196C8.03845 11.5116 8.43271 11.1677 8.89555 10.9166L7.39991 6.53846H9.52837C9.71532 6.05607 10.0036 5.61182 10.3769 5.23077H7.34277L8.41414 1.30769H11.5854L12.3425 4.08654C12.8059 3.95988 13.2894 3.90594 13.7725 3.927L13.0582 1.30769H15.9866L18.1294 5.23077H16.7652C17.1337 5.60869 17.4251 6.05069 17.6123 6.53846H17.7837L17.6623 6.67577C17.8781 7.30723 17.9159 7.9784 17.7723 8.62685L19.8393 6.29654C19.9261 6.19905 19.9804 6.0807 19.9956 5.95568C20.0108 5.83066 19.9863 5.70428 19.925 5.59169L17.068 0.360924C17.0085 0.252256 16.9171 0.160918 16.8041 0.0971635C16.691 0.033409 16.5608 -0.000237636 16.428 1.26338e-06H3.57152ZM1.87018 5.23077L4.01293 1.30769H6.94136L5.86998 5.23077H1.87018ZM16.428 7.84615C16.428 8.5398 16.127 9.20503 15.5912 9.69551C15.0554 10.186 14.3288 10.4615 13.571 10.4615C12.8133 10.4615 12.0866 10.186 11.5508 9.69551C11.015 9.20503 10.714 8.5398 10.714 7.84615C10.714 7.15251 11.015 6.48728 11.5508 5.9968C12.0866 5.50632 12.8133 5.23077 13.571 5.23077C14.3288 5.23077 15.0554 5.50632 15.5912 5.9968C16.127 6.48728 16.428 7.15251 16.428 7.84615ZM18.5708 13.7308C18.5708 15.3588 17.1423 17 13.571 17C9.99978 17 8.57128 15.3654 8.57128 13.7308C8.57128 13.2105 8.79703 12.7116 9.19887 12.3438C9.60072 11.9759 10.1457 11.7692 10.714 11.7692H16.428C16.9963 11.7692 17.5413 11.9759 17.9432 12.3438C18.345 12.7116 18.5708 13.2105 18.5708 13.7308Z" fill="#3399FF"/>
</svg>
