<svg width="18" height="14" viewBox="0 0 18 14" fill="none" xmlns="http://www.w3.org/2000/svg">
<path d="M6.10714 0C5.51114 0.00258049 4.94021 0.261533 4.51877 0.720439C4.09733 1.17935 3.85951 1.80101 3.85714 2.45C3.85714 3.7954 4.87157 4.9 6.10714 4.9C7.34271 4.9 8.35714 3.7954 8.35714 2.45C8.35714 1.1046 7.34271 0 6.10714 0ZM11.8929 0C11.2968 0.00258049 10.7259 0.261533 10.3045 0.720439C9.88304 1.17935 9.64523 1.80101 9.64286 2.45C9.64286 3.7954 10.6573 4.9 11.8929 4.9C13.1284 4.9 14.1429 3.7954 14.1429 2.45C14.1429 1.1046 13.1284 0 11.8929 0ZM6.10714 1.4C6.64714 1.4 7.07143 1.862 7.07143 2.45C7.07143 3.038 6.64714 3.5 6.10714 3.5C5.56714 3.5 5.14286 3.038 5.14286 2.45C5.14286 1.862 5.56714 1.4 6.10714 1.4ZM11.8929 1.4C12.4329 1.4 12.8571 1.862 12.8571 2.45C12.8571 3.038 12.4329 3.5 11.8929 3.5C11.3529 3.5 10.9286 3.038 10.9286 2.45C10.9286 1.862 11.3529 1.4 11.8929 1.4ZM3.21429 4.2C1.8 4.2 0.642857 5.46 0.642857 7C0.642857 7.7791 0.9495 8.4819 1.4265 8.9908C0.98908 9.3125 0.630468 9.74571 0.381854 10.2527C0.13324 10.7598 0.00215507 11.3252 0 11.9H1.28571C1.28571 10.7324 2.142 9.8 3.21429 9.8C4.28657 9.8 5.14286 10.7324 5.14286 11.9H6.42857C6.42642 11.3252 6.29533 10.7598 6.04672 10.2527C5.7981 9.74571 5.43949 9.3125 5.00207 8.9908C5.47907 8.4819 5.78571 7.7798 5.78571 7C5.78571 5.46 4.62857 4.2 3.21429 4.2ZM6.42857 11.9C6.02679 12.4852 5.78571 13.2209 5.78571 14H7.07143C7.07143 12.8324 7.92771 11.9 9 11.9C10.0723 11.9 10.9286 12.8324 10.9286 14H12.2143C12.2134 13.2429 11.9879 12.5063 11.5714 11.9C11.3529 11.5829 11.0893 11.312 10.7878 11.0908C11.2648 10.5819 11.5714 9.8798 11.5714 9.1C11.5714 7.56 10.4143 6.3 9 6.3C7.58571 6.3 6.42857 7.56 6.42857 9.1C6.42857 9.8791 6.73521 10.5819 7.21221 11.0908C6.91096 11.3105 6.646 11.5841 6.42857 11.9ZM11.5714 11.9H12.8571C12.8571 10.7324 13.7134 9.8 14.7857 9.8C15.858 9.8 16.7143 10.7324 16.7143 11.9H18C17.9978 11.3252 17.8668 10.7598 17.6181 10.2527C17.3695 9.74571 17.0109 9.3125 16.5735 8.9908C17.0505 8.4819 17.3571 7.7798 17.3571 7C17.3571 5.46 16.2 4.2 14.7857 4.2C13.3714 4.2 12.2143 5.46 12.2143 7C12.2143 7.7791 12.5209 8.4819 12.9979 8.9908C12.5605 9.3125 12.2019 9.74571 11.9533 10.2527C11.7047 10.7598 11.5736 11.3252 11.5714 11.9ZM3.21429 5.6C3.93236 5.6 4.5 6.2181 4.5 7C4.5 7.7819 3.93236 8.4 3.21429 8.4C2.49621 8.4 1.92857 7.7819 1.92857 7C1.92857 6.2181 2.49621 5.6 3.21429 5.6ZM14.7857 5.6C15.5038 5.6 16.0714 6.2181 16.0714 7C16.0714 7.7819 15.5038 8.4 14.7857 8.4C14.0676 8.4 13.5 7.7819 13.5 7C13.5 6.2181 14.0676 5.6 14.7857 5.6ZM9 7.7C9.71807 7.7 10.2857 8.3181 10.2857 9.1C10.2857 9.8819 9.71807 10.5 9 10.5C8.28193 10.5 7.71429 9.8819 7.71429 9.1C7.71429 8.3181 8.28193 7.7 9 7.7Z" fill="#000"/>
</svg>
